<svg width="51" height="51" viewBox="0 0 51 51" fill="none" xmlns="http://www.w3.org/2000/svg">
<path fill-rule="evenodd" clip-rule="evenodd" d="M19.6475 3.66731C19.0387 4.18613 18.7343 4.44558 18.4092 4.66348C17.6639 5.16298 16.8269 5.50966 15.9468 5.68343C15.5628 5.75926 15.1641 5.79106 14.3667 5.85468C12.3633 6.01458 11.3615 6.09451 10.5258 6.38971C8.59278 7.07246 7.07233 8.59291 6.38958 10.5259C6.09438 11.3616 6.01446 12.3634 5.85456 14.3668C5.79093 15.1642 5.75913 15.5629 5.68331 15.9469C5.50953 16.8271 5.16286 17.664 4.66336 18.4093C4.44546 18.7344 4.18603 19.0388 3.66718 19.6476C2.36358 21.1774 1.71176 21.9421 1.32956 22.7419C0.445485 24.5916 0.445485 26.7416 1.32956 28.5914C1.71178 29.3911 2.36358 30.1559 3.66718 31.6856C4.18596 32.2944 4.44546 32.5989 4.66336 32.9239C5.16286 33.6691 5.50953 34.5061 5.68331 35.3864C5.75913 35.7704 5.79093 36.1691 5.85456 36.9664C6.01446 38.9699 6.09438 39.9716 6.38958 40.8074C7.07233 42.7404 8.59278 44.2609 10.5258 44.9436C11.3615 45.2386 12.3633 45.3186 14.3667 45.4786C15.1641 45.5421 15.5628 45.5741 15.9468 45.6499C16.8269 45.8236 17.6639 46.1704 18.4092 46.6699C18.7343 46.8876 19.0387 47.1471 19.6475 47.6659C21.1773 48.9696 21.942 49.6214 22.7418 50.0036C24.5915 50.8876 26.7415 50.8876 28.5913 50.0036C29.391 49.6214 30.1558 48.9696 31.6855 47.6659C32.2943 47.1471 32.5988 46.8876 32.9238 46.6699C33.669 46.1704 34.506 45.8236 35.3863 45.6499C35.7703 45.5741 36.169 45.5421 36.9663 45.4786C38.9698 45.3186 39.9715 45.2386 40.8072 44.9436C42.7402 44.2609 44.2608 42.7404 44.9435 40.8074C45.2385 39.9716 45.3185 38.9699 45.4785 36.9664C45.542 36.1691 45.574 35.7704 45.6497 35.3864C45.8235 34.5061 46.1703 33.6691 46.6698 32.9239C46.8875 32.5989 47.147 32.2944 47.6657 31.6856C48.9695 30.1559 49.6213 29.3911 50.0035 28.5914C50.8875 26.7416 50.8875 24.5916 50.0035 22.7419C49.6213 21.9421 48.9695 21.1774 47.6657 19.6476C47.147 19.0388 46.8875 18.7344 46.6698 18.4093C46.1703 17.664 45.8235 16.8271 45.6497 15.9469C45.574 15.5629 45.542 15.1642 45.4785 14.3668C45.3185 12.3634 45.2385 11.3616 44.9435 10.5259C44.2608 8.59291 42.7402 7.07246 40.8072 6.38971C39.9715 6.09451 38.9698 6.01458 36.9663 5.85468C36.169 5.79106 35.7703 5.75926 35.3863 5.68343C34.506 5.50966 33.669 5.16298 32.9238 4.66348C32.5988 4.44558 32.2943 4.18616 31.6855 3.66731C30.1558 2.36371 29.391 1.71191 28.5913 1.32968C26.7415 0.445607 24.5915 0.445607 22.7418 1.32968C21.942 1.71188 21.1773 2.36371 19.6475 3.66731ZM35.2438 16.0906C36.0383 16.8852 36.0383 18.1735 35.2438 18.968L18.9666 35.2451C18.172 36.0399 16.8837 36.0399 16.0892 35.2451C15.2946 34.4506 15.2946 33.1624 16.0892 32.3679L32.3663 16.0906C33.161 15.296 34.4493 15.296 35.2438 16.0906ZM35.1615 32.4501C35.1615 33.9484 33.947 35.1629 32.4488 35.1629C30.9503 35.1629 29.7358 33.9484 29.7358 32.4501C29.7358 30.9519 30.9503 29.7371 32.4488 29.7371C33.947 29.7371 35.1615 30.9519 35.1615 32.4501ZM18.8843 21.5986C20.3826 21.5986 21.5973 20.384 21.5973 18.8858C21.5973 17.3875 20.3826 16.1729 18.8843 16.1729C17.386 16.1729 16.1714 17.3875 16.1714 18.8858C16.1714 20.384 17.386 21.5986 18.8843 21.5986Z" fill="#F26430"/>
</svg>
