<svg width="41" height="223" viewBox="0 0 41 223" fill="none" xmlns="http://www.w3.org/2000/svg">
<path d="M40.4011 213.926C40.4011 215.664 40.0446 217.179 39.3315 218.472C38.6185 219.764 37.4375 220.767 35.7887 221.48C34.0952 222.193 31.8001 222.549 28.9035 222.549L26.7644 222.549C26.7644 222.327 26.7644 222.082 26.7644 221.814C26.7644 221.547 26.7644 221.302 26.7644 221.079L28.9035 221.079C31.5328 221.079 33.605 220.789 35.1202 220.21C36.5908 219.586 37.6381 218.739 38.262 217.67C38.8413 216.556 39.131 215.308 39.131 213.926C39.131 211.743 38.4625 209.915 37.1256 208.445C35.7887 206.974 33.4267 206.239 30.0399 206.239C27.8562 206.239 26.185 206.573 25.0264 207.242C23.8677 207.866 22.9541 208.801 22.2856 210.049C21.6172 211.297 20.9487 212.79 20.2802 214.528C19.7455 215.865 19.1216 217.135 18.4085 218.338C17.6955 219.541 16.7151 220.522 15.4673 221.279C14.1749 221.992 12.4815 222.349 10.3869 222.349C8.24785 222.349 6.44299 222.059 4.97236 221.48C3.50174 220.901 2.38763 219.965 1.63004 218.672C0.87244 217.38 0.493642 215.709 0.493642 213.659C0.493642 210.985 1.25124 208.89 2.76643 207.375C4.23705 205.86 6.28701 205.103 8.91632 205.103L12.994 205.103C12.994 205.325 12.994 205.57 12.994 205.838C12.994 206.061 12.994 206.306 12.994 206.573L9.05001 206.573C6.77723 206.573 4.99465 207.197 3.70228 208.445C2.40991 209.693 1.76373 211.431 1.76373 213.659C1.76373 216.154 2.47676 217.982 3.90282 219.14C5.32888 220.299 7.46797 220.878 10.3201 220.878C12.2364 220.878 13.7738 220.522 14.9325 219.809C16.0466 219.051 16.9379 218.093 17.6064 216.934C18.2303 215.776 18.7873 214.55 19.2775 213.258C20.0797 211.208 20.9041 209.559 21.7509 208.311C22.553 207.063 23.578 206.15 24.8258 205.57C26.0736 204.991 27.7893 204.701 29.973 204.701C32.5577 204.701 34.6077 205.103 36.1229 205.905C37.6381 206.707 38.7299 207.799 39.3984 209.18C40.0668 210.562 40.4011 212.144 40.4011 213.926ZM40 203.543L0.493641 193.583L0.493641 192.313L40 182.42L40 184.024L29.4382 186.765L29.4382 199.399L40 202.072L40 203.543ZM28.3018 199.198L28.3018 186.898L4.3039 192.981L28.3018 199.198ZM40 179.181L0.49364 179.181L0.49364 177.577L38.7299 177.577L38.7299 165.01L40 165.01L40 179.181ZM40 162.809L0.49364 162.809L0.493639 146.565L1.76372 146.565L1.76373 161.138L18.5422 161.138L18.5422 149.908L19.8123 149.908L19.8123 161.138L38.7299 161.138L38.7299 146.565L40 146.565L40 162.809ZM40.4011 136.361C40.4011 138.099 40.0446 139.614 39.3315 140.906C38.6185 142.199 37.4375 143.201 35.7887 143.914C34.0952 144.627 31.8001 144.984 28.9035 144.984L26.7644 144.984C26.7644 144.761 26.7644 144.516 26.7644 144.249C26.7644 143.981 26.7644 143.736 26.7644 143.513L28.9035 143.513C31.5328 143.513 33.605 143.224 35.1202 142.644C36.5908 142.02 37.6381 141.174 38.262 140.104C38.8413 138.99 39.131 137.742 39.131 136.361C39.131 134.177 38.4625 132.35 37.1256 130.879C35.7887 129.409 33.4267 128.673 30.0398 128.673C27.8562 128.673 26.185 129.008 25.0264 129.676C23.8677 130.3 22.9541 131.236 22.2856 132.484C21.6172 133.731 20.9487 135.224 20.2802 136.962C19.7455 138.299 19.1216 139.569 18.4085 140.773C17.6955 141.976 16.7151 142.956 15.4673 143.714C14.1749 144.427 12.4815 144.783 10.3869 144.783C8.24785 144.783 6.44299 144.494 4.97236 143.914C3.50174 143.335 2.38763 142.399 1.63003 141.107C0.872437 139.814 0.493639 138.143 0.493639 136.093C0.493638 133.419 1.25123 131.325 2.76642 129.81C4.23705 128.295 6.28701 127.537 8.91631 127.537L12.994 127.537C12.994 127.76 12.994 128.005 12.994 128.272C12.994 128.495 12.994 128.74 12.994 129.008L9.05001 129.008C6.77722 129.008 4.99464 129.631 3.70227 130.879C2.40991 132.127 1.76372 133.865 1.76372 136.093C1.76372 138.589 2.47676 140.416 3.90282 141.575C5.32888 142.733 7.46797 143.313 10.3201 143.313C12.2364 143.313 13.7738 142.956 14.9325 142.243C16.0466 141.486 16.9379 140.527 17.6064 139.369C18.2303 138.21 18.7873 136.985 19.2775 135.692C20.0797 133.642 20.9041 131.993 21.7509 130.746C22.553 129.498 23.578 128.584 24.8258 128.005C26.0736 127.426 27.7893 127.136 29.973 127.136C32.5577 127.136 34.6077 127.537 36.1229 128.339C37.6381 129.141 38.7299 130.233 39.3984 131.615C40.0668 132.996 40.4011 134.578 40.4011 136.361Z" fill="#3C3C3C"/>
<path d="M40 101.579L0.167757 101.579L0.167757 90.9332L40 90.9332L40 101.579ZM40 124.916L0.167758 124.916L0.167758 114.33L40 114.33L40 124.916ZM25.6113 118.131L15.3169 118.131L15.3169 97.8351L25.6113 97.8351L25.6113 118.131ZM40.8189 69.462C40.8189 73.3224 40.1365 76.5004 38.7717 78.996C37.3679 81.4526 35.3012 83.2854 32.5717 84.4942C29.8031 85.664 26.3716 86.2489 22.2773 86.2489L0.167757 86.2489L0.167756 75.6036L23.2716 75.6036C25.5333 75.6036 27.3075 75.0966 28.5943 74.0828C29.8421 73.069 30.466 71.5287 30.466 69.462C30.466 67.3954 29.8421 65.8551 28.5943 64.8413C27.3075 63.8274 25.5333 63.3205 23.2716 63.3205L0.167756 63.3205L0.167755 52.6752L22.2773 52.6752C26.3716 52.6752 29.8031 53.2796 32.5717 54.4884C35.3012 55.6582 37.3679 57.4714 38.7717 59.928C40.1365 62.3846 40.8189 65.5626 40.8189 69.462ZM40 47.9758L0.167755 47.9758L0.167754 32.8852C0.167754 29.1808 0.596687 26.2757 1.45455 24.1701C2.31242 22.0644 3.57972 20.5826 5.25645 19.7248C6.8942 18.8669 8.92188 18.438 11.3395 18.438C13.1722 18.438 14.7905 18.7889 16.1942 19.4908C17.559 20.1927 18.6314 21.187 19.4112 22.4738C20.1911 23.7606 20.581 25.2814 20.581 27.0361L19.5867 27.0361C19.5867 24.7745 20.0351 22.9807 20.932 21.6549C21.7899 20.3292 22.9207 19.3738 24.3245 18.7889C25.7282 18.204 27.21 17.9115 28.7698 17.9115C32.5522 17.9115 35.3792 19.0619 37.2509 21.3625C39.0836 23.6631 40 27.1336 40 31.7739L40 47.9758ZM5.08098 37.389L34.6773 37.389L29.8811 40.9569L29.8811 32.1248C29.8811 31.111 29.6666 30.2921 29.2377 29.6682C28.8088 29.0053 28.1264 28.6738 27.1905 28.6738C26.2547 28.6738 25.5723 28.9858 25.1433 29.6097C24.7144 30.2336 24.4999 31.033 24.4999 32.0078L24.4999 40.9569L15.6678 40.9569L15.6678 32.7682C15.6678 31.5984 15.4534 30.7405 15.0244 30.1946C14.5955 29.6097 13.9131 29.3172 12.9772 29.3172C12.0414 29.3172 11.359 29.6097 10.9301 30.1946C10.5011 30.7405 10.2867 31.5984 10.2867 32.7682L10.2867 40.7814L5.08098 37.389ZM40.8189 7.84929C40.8189 9.0971 40.5069 10.2474 39.883 11.3002C39.2591 12.3531 38.4207 13.1915 37.3679 13.8154C36.3151 14.4393 35.1648 14.7512 33.9169 14.7512C32.6301 14.7512 31.4798 14.4393 30.466 13.8154C29.4132 13.1915 28.5748 12.3531 27.9509 11.3002C27.327 10.2474 27.015 9.0971 27.015 7.84929C27.015 6.5235 27.327 5.35368 27.9509 4.33984C28.5748 3.28701 29.4132 2.44864 30.466 1.82474C31.4798 1.20084 32.6301 0.888887 33.9169 0.888887C35.1648 0.888887 36.3151 1.20084 37.3679 1.82474C38.4207 2.44864 39.2591 3.28701 39.883 4.33984C40.5069 5.35368 40.8189 6.5235 40.8189 7.84929Z" fill="#F26430"/>
</svg>
