<svg width="19" height="21" viewBox="0 0 19 21" fill="none" xmlns="http://www.w3.org/2000/svg">
<path d="M14.0272 5.19664H17.068C17.2519 5.19682 17.4292 5.26526 17.5655 5.3887C17.7019 5.51214 17.7875 5.68179 17.8059 5.86478L18.2588 10.3933H16.7651L16.3939 6.6814H14.0272V8.90853C14.0272 9.10542 13.949 9.29425 13.8098 9.43347C13.6706 9.57269 13.4817 9.65091 13.2849 9.65091C13.088 9.65091 12.8991 9.57269 12.7599 9.43347C12.6207 9.29425 12.5425 9.10542 12.5425 8.90853V6.6814H6.60346V8.90853C6.60346 9.10542 6.52524 9.29425 6.38602 9.43347C6.2468 9.57269 6.05797 9.65091 5.86108 9.65091C5.66419 9.65091 5.47536 9.57269 5.33614 9.43347C5.19692 9.29425 5.1187 9.10542 5.1187 8.90853V6.6814H2.75052L1.56271 18.5594H9.57297V20.0442H0.741645C0.637955 20.0441 0.535437 20.0223 0.440695 19.9801C0.345953 19.938 0.261089 19.8765 0.19157 19.7995C0.122051 19.7226 0.0694188 19.632 0.0370648 19.5335C0.00471081 19.4349 -0.00664771 19.3307 0.0037213 19.2276L1.34 5.86478C1.35839 5.68179 1.44405 5.51214 1.58038 5.3887C1.71672 5.26526 1.89401 5.19682 2.07792 5.19664H5.1187V4.67846C5.1187 2.1039 7.10234 0 9.57297 0C12.0436 0 14.0272 2.1039 14.0272 4.67846V5.19813V5.19664ZM12.5425 5.19664V4.67846C12.5425 2.90567 11.2032 1.48475 9.57297 1.48475C7.94271 1.48475 6.60346 2.90567 6.60346 4.67846V5.19813H12.5425V5.19664ZM17.215 16.4214L15.512 14.7199V20.0442C15.512 20.2411 15.4338 20.4299 15.2945 20.5691C15.1553 20.7084 14.9665 20.7866 14.7696 20.7866C14.5727 20.7866 14.3839 20.7084 14.2447 20.5691C14.1054 20.4299 14.0272 20.2411 14.0272 20.0442V14.7199L12.3257 16.4214C12.2572 16.4923 12.1753 16.5488 12.0847 16.5878C11.9942 16.6267 11.8967 16.6471 11.7982 16.648C11.6996 16.6489 11.6018 16.6301 11.5106 16.5927C11.4194 16.5554 11.3365 16.5003 11.2668 16.4306C11.1971 16.3609 11.142 16.278 11.1046 16.1868C11.0673 16.0955 11.0485 15.9978 11.0494 15.8992C11.0502 15.8006 11.0707 15.7032 11.1096 15.6126C11.1485 15.5221 11.2051 15.4401 11.276 15.3717L14.2455 12.4022C14.3847 12.263 14.5735 12.1848 14.7704 12.1848C14.9672 12.1848 15.156 12.263 15.2952 12.4022L18.2647 15.3717C18.3356 15.4401 18.3922 15.5221 18.4311 15.6126C18.47 15.7032 18.4905 15.8006 18.4913 15.8992C18.4922 15.9978 18.4734 16.0955 18.4361 16.1868C18.3988 16.278 18.3436 16.3609 18.2739 16.4306C18.2042 16.5003 18.1213 16.5554 18.0301 16.5927C17.9389 16.6301 17.8411 16.6489 17.7425 16.648C17.644 16.6471 17.5465 16.6267 17.456 16.5878C17.3654 16.5488 17.2835 16.4923 17.215 16.4214Z" fill="#3C3C3C"/>
</svg>
