<svg width="28" height="28" viewBox="0 0 28 28" fill="none" xmlns="http://www.w3.org/2000/svg">
<path fill-rule="evenodd" clip-rule="evenodd" d="M18.8571 8.68481L14.3357 4.80972C14.1246 4.62466 13.8581 4.52999 13.5902 4.52985C13.4069 4.52975 13.2229 4.57392 13.0556 4.66367C12.981 4.70357 12.9102 4.75229 12.8447 4.80972L8.32325 8.68481C7.84835 9.09182 7.79331 9.80675 8.20033 10.2817C8.60734 10.7566 9.32227 10.8116 9.79717 10.4046L12.4576 8.12443V16.8951C12.4576 17.5205 12.9647 18.0275 13.5901 18.0275C14.2156 18.0275 14.7226 17.5205 14.7226 16.8951L14.7226 8.1243L17.3832 10.4046C17.8581 10.8116 18.573 10.7566 18.9801 10.2817C19.3871 9.80675 19.332 9.09182 18.8571 8.68481ZM6.79523 15.8546C6.79523 15.2292 7.30226 14.7222 7.92771 14.7222H9.62643C10.2519 14.7222 10.7589 14.2151 10.7589 13.5897C10.7589 12.9642 10.2519 12.4572 9.62643 12.4572H7.92771C6.05136 12.4572 4.53027 13.9783 4.53027 15.8546V19.2521C4.53027 21.1284 6.05136 22.6495 7.92771 22.6495H19.2525C21.1288 22.6495 22.6499 21.1284 22.6499 19.2521V15.8546C22.6499 13.9783 21.1288 12.4572 19.2525 12.4572H17.5538C16.9283 12.4572 16.4213 12.9642 16.4213 13.5897C16.4213 14.2151 16.9283 14.7222 17.5538 14.7222H19.2525C19.8779 14.7222 20.385 15.2292 20.385 15.8546V19.2521C20.385 19.8775 19.8779 20.3845 19.2525 20.3845H7.92771C7.30226 20.3845 6.79523 19.8775 6.79523 19.2521V15.8546Z" fill="#F2865E"/>
</svg>
