<svg width="20" height="20" viewBox="0 0 20 20" fill="none" xmlns="http://www.w3.org/2000/svg">
<path d="M5 20C2.2386 20 0 17.7614 0 15V5C0.000143051 2.23872 2.23869 0 5 0H15C17.7613 1.90735e-06 19.9999 2.23872 20 5V15C20 17.7614 17.7614 20 15 20H5ZM15 18C16.6568 18 18 16.6568 18 15V5C17.9999 3.34322 16.6568 2 15 2H5C3.34319 2 2.00014 3.34322 2 5V15C2 16.6569 3.3431 18 5 18H15ZM5.83203 13.5547C5.52573 14.0142 4.90481 14.1384 4.44531 13.832C3.9859 13.5257 3.86169 12.9048 4.16797 12.4453L7.33398 7.69629C7.73386 7.09674 8.5452 6.93685 9.14258 7.33984L12.4336 9.56152L14.126 6.51465C14.3942 6.03195 15.0026 5.85798 15.4854 6.12598C15.968 6.39422 16.142 7.0027 15.874 7.48535L13.8105 11.2002C13.4402 11.8663 12.579 12.0726 11.9473 11.6465L8.60742 9.3916L5.83203 13.5547Z" fill="#3C3C3C"/>
</svg>
