<svg width="26" height="31" viewBox="0 0 26 31" fill="none" xmlns="http://www.w3.org/2000/svg">
<path d="M13.0684 3.7728C19.09 4.0169 23.7312 9.1879 23.5381 15.2806C23.5382 16.0208 23.9402 16.8363 24.5869 18.0247C25.1488 19.0574 25.9535 20.4618 26 21.9613C26.0004 21.9745 26.001 21.9881 26.001 22.0013V22.097H26C26.0512 24.2043 24.4383 26.022 22.3027 26.1078C22.2856 26.1084 22.2681 26.1087 22.251 26.1087H18.0596C17.8447 27.0617 17.3895 27.9518 16.7256 28.683L16.7246 28.682C15.775 29.7363 14.4318 30.3441 13.0156 30.3441C11.5969 30.344 10.2506 29.7348 9.30078 28.6771V28.6761C8.63978 27.9461 8.18692 27.059 7.97266 26.1087H3.7793C3.76214 26.1087 3.74468 26.1084 3.72754 26.1078C1.59213 26.022 -0.0209059 24.2044 0.0302734 22.097H0.0292969V22.0013C0.0292969 21.9878 0.0298402 21.9739 0.0302734 21.9603C0.0779387 20.4645 0.882752 19.0599 1.44434 18.0277C2.09095 16.8392 2.49307 16.0219 2.49316 15.2806H2.49414C2.30101 9.1878 6.9422 4.01673 12.9639 3.7728H13.0684ZM10.666 26.1087C10.7618 26.3292 10.8815 26.5386 11.0254 26.7308L11.21 26.9535L11.2148 26.9593C11.6847 27.4825 12.3387 27.7727 13.0156 27.7728C13.6927 27.7728 14.3475 27.4826 14.8174 26.9593L14.8223 26.9535C15.0488 26.704 15.2289 26.417 15.3633 26.1087H10.666ZM13.0156 6.34604C8.47822 6.55882 4.89549 10.4937 5.06445 15.2347C5.06498 15.2498 5.06445 15.2655 5.06445 15.2806C5.06436 16.7987 4.27035 18.2146 3.70312 19.2572C3.05098 20.4559 2.6248 21.2822 2.60059 22.0423V22.1429C2.57328 22.9117 3.1488 23.5046 3.82031 23.5374H22.21C22.8814 23.5046 23.457 22.9118 23.4297 22.1429C23.4291 22.1278 23.4287 22.1121 23.4287 22.097V22.0179C23.3973 21.2611 22.973 20.4384 22.3281 19.2533C21.7615 18.212 20.9669 16.7979 20.9668 15.2806C20.9668 15.2655 20.9672 15.2498 20.9678 15.2347C21.1367 10.4935 17.5534 6.55848 13.0156 6.34604ZM14.6875 0.343109C15.3975 0.343219 15.9727 0.919192 15.9727 1.62924C15.9725 2.33914 15.3974 2.91429 14.6875 2.9144H11.3447C10.6347 2.9144 10.0588 2.33921 10.0586 1.62924C10.0586 0.919125 10.6346 0.343109 11.3447 0.343109H14.6875Z" fill="#3C3C3C"/>
</svg>
