<svg width="20" height="20" viewBox="0 0 20 20" fill="none" xmlns="http://www.w3.org/2000/svg">
<path d="M14.1684 10.8333C14.6287 10.8333 15.0018 11.2064 15.0018 11.6667C15.0018 12.094 14.6801 12.4463 14.2656 12.4944L14.1684 12.5H4.51425L7.25767 15.2441C7.55808 15.5445 7.58119 16.0172 7.327 16.3441L7.25767 16.4226C6.95727 16.723 6.48458 16.7461 6.15767 16.4919L6.07916 16.4226L1.9125 12.2559C1.41035 11.7538 1.7287 10.9107 2.40706 10.8383L2.50175 10.8333H14.1684ZM13.8442 3.5081L13.9227 3.57742L18.0893 7.74409C18.5915 8.24623 18.2731 9.08933 17.5948 9.16169L17.5001 9.16668H5.83341C5.37318 9.16668 5.00008 8.79358 5.00008 8.33334C5.00008 7.90598 5.32178 7.55375 5.73623 7.50562L5.83341 7.50001H15.4876L12.7442 4.75593C12.4438 4.45553 12.4206 3.98284 12.6748 3.65593L12.7442 3.57742C13.0446 3.27702 13.5173 3.25391 13.8442 3.5081Z" fill="#3C3C3C"/>
</svg>
